<svg fill="none" height="24" viewBox="0 0 24 24" width="24" xmlns="http://www.w3.org/2000/svg"><g stroke="#141b34" stroke-linejoin="round" stroke-width="1.5"><path d="m2.5 12c0-4.47834 0-6.71751 1.39124-8.10876 1.39125-1.39124 3.63042-1.39124 8.10876-1.39124 4.4783 0 6.7175 0 8.1088 1.39124 1.3912 1.39125 1.3912 3.63042 1.3912 8.10876 0 4.4783 0 6.7175-1.3912 8.1088-1.3913 1.3912-3.6305 1.3912-8.1088 1.3912-4.47834 0-6.71751 0-8.10876-1.3912-1.39124-1.3913-1.39124-3.6305-1.39124-8.1088z"/><g stroke-linecap="round"><path d="m13 16-.8661-2.8m-5.1339 2.8.86614-2.8m0 0 .72417-2.3411c.58958-1.90592.88437-2.8589 1.40969-2.8589.5253 0 .8201.95298 1.4097 2.8589l.7242 2.3411m-4.26776 0h4.26776"/><path d="m16 16v-5"/><path d="m16 8.5v-.5"/></g></g></svg>