<svg fill="none" height="24" viewBox="0 0 24 24" width="24" xmlns="http://www.w3.org/2000/svg"><path d="m1.46831 12.405c-.29214.2937-.29092.7685.00272 1.0607.29364.2921.76852.2909 1.06066-.0027zm9.96159-10.32064.2015-.72242zm2.3867.66578.2015-.72242zm1.0302.68393-.5827.47229zm5.7513 8.88683-.6826.3107zm-11.95513-8.77315-.5516-.50817zm2.23783 3.19063-.1222-.73999zm2.854 1.3185.5949-.45672zm.9778 3.57702-.7454.0825zm.751 1.9349-.421.6206c.3152.2138.7406.1575.9892-.1311.2486-.2885.2415-.7176-.0166-.9977zm-7.83823.6593c-.2567.3251-.20127.7967.12381 1.0534s.7967.2013 1.05341-.1238zm-.01821-8.86172-.73885.12884zm14.17104 12.23752.6966.2779zm-4.2419 2.6418.2346.7124zm-5.0753-13.62157.2856-.69351zm-2.2565 13.77517.5384.522zm-7.65289-.5937c-.28065-.3047-.75513-.3241-1.05977-.0435-.30465.2807-.3241.7552-.04345 1.0598zm7.82799.3489.2731-.6985c-.3424-.1338-.73124.0001-.9185.3164zm-.0344.058-.64532-.3821h-.00001zm.4353-7.3841.2292.7141zm.4479-10.02162 2.3867.66578.403-1.44484-2.3867-.66578zm3.0357 1.09958c2.5862 3.1903 4.2431 5.63112 5.6514 8.72524l1.3652-.6213c-1.48-3.25191-3.2205-5.80309-5.8513-9.04851zm-.2969 7.81004c.0859.7754.3367 1.7004.9448 2.3605l1.1032-1.0163c-.2933-.3184-.4862-.8686-.5571-1.5093zm-.8273-3.20279c.1964.25575.3328.43354.4284.5664.1064.14779.1172.17995.1086.15829l1.394-.55387c-.068-.17111-.1835-.33952-.2852-.48076-.1124-.15619-.2659-.35592-.456-.60351zm2.3182 3.03769c-.0929-.8388-.1633-1.4751-.218-1.91989-.0273-.22187-.0516-.40398-.0737-.54334-.0169-.10654-.0442-.27438-.0955-.40364l-1.394.55387c-.0217-.05453-.0151-.0612.008.08455.0179.11294.0397.27424.0664.49156.0533.43359.1225 1.05879.2159 1.90199zm-7.36673-8.51172c-.36022.391-.7007.75639-.92217 1.10546-.24857.39178-.39189.8283-.30089 1.35018l1.47771-.25768c-.0108-.06193-.01542-.12312.08976-.2889.13227-.20849.3606-.4605.75878-.89271zm11.82413 9.59202c.5943 1.3058 1.0001 2.2031 1.2008 2.9502.1895.7053.1772 1.2129-.0347 1.7441l1.3932.5559c.36-.9022.3417-1.753.0902-2.6892-.2403-.8944-.7105-1.9218-1.2843-3.1823zm-2.1446 8.3265c1.1963-.3939 2.1942-.7192 2.9543-1.1426.8088-.4506 1.3898-1.0321 1.7496-1.9337l-1.3932-.5559c-.2123.5319-.5288.8686-1.0864 1.1792-.6061.3377-1.4431.6165-2.6934 1.0282zm-6.768-13.47974c.4536-.07489.7536-.12394.9733-.14428.2378-.02202.2529.00564.1993-.01643l.5711-1.38703c-.3079-.12675-.6409-.11494-.9087-.09015-.2859.02646-.6489.08687-1.0793.15792zm-1.33689 12.39884c-.87969.9073-2.20812 1.3853-3.57625 1.3726-1.36798-.0127-2.68209-.515-3.53815-1.4442l-1.10322 1.0163c1.18866 1.2903 2.9285 1.912 4.62744 1.9278 1.69878.0158 3.45022-.5733 4.66707-1.8284zm7.63579-.3439c-2.3317.7677-4.3081.838-6.6491-.0773l-.5462 1.397c2.7166 1.0622 5.057.9636 7.6644.1051zm-6.3112 1.0613.0343-.058-1.2907-.7642-.03432.058zm-.2477.3267c.1018-.1049.1829-.2173.2477-.3267l-1.29073-.7642c-.01489.0252-.02686.0396-.03386.0468zm5.1418-7.9732c-1.056-.7164-3.1618-1.5308-5.3334-.8338l.4584 1.4282c1.5864-.5092 3.2107.0891 4.0329.6469zm-5.3334-.8338c-1.03409.3319-2.04369.9966-2.92593 2.1138l1.17722.9296c.7083-.897 1.47301-1.3795 2.20711-1.6152zm.7438.1685c-1.29918-1.2253-3.15066-1.7927-4.93874-1.7735-1.78796.0191-3.62501.6262-4.88805 1.8957l1.06338 1.058c.92361-.9284 2.34901-1.4378 3.84074-1.4538 1.49161-.016 2.93704.4628 3.89347 1.3648zm.8804-4.96515c.0777.03201.2059.13408.3962.38609.0887.11734.1744.24408.2694.38511.09.13341.1933.28722.2988.42476l1.1898-.91345c-.0719-.09367-.1481-.20637-.2447-.34972-.0915-.13573-.1994-.29599-.3164-.45085-.2209-.29239-.5521-.67549-1.022-.86897zm1.4396-3.84509c.1592.0444.2486.06998.3141.09291.0294.01026.0455.01716.0539.02111.004.00188.0062.00307.0071.00356.0004.00026.0007.00041.0008.00047 0 .00003 0 .00004.0001.00005v.00001.00004c.0001.00003.0001.00007.0002.00014.0002.00014.0006.00042.0012.0009.0012.00093.0037.00292.0076.00647.0083.00741.0224.02101.045.04569.0498.05448.1119.13035.219.26245l1.1653-.94457c-.1771-.21844-.3607-.45599-.608-.62036-.2511-.16687-.5399-.24024-.8033-.31371zm-1.9837-2.11062c-.9087-.2535-1.631-.05335-2.2247.36673-.51192.36221-.96676.93256-1.31533 1.31091l1.10319 1.01635c.47292-.51333.73875-.86236 1.07854-1.10277.258-.18253.5184-.26824.9553-.14638zm-4.76309 4.13328c.18403 1.05531 1.12883 1.5691 1.86758 1.79887.7779.24195 1.66031.28444 2.26701.18427l-.2443-1.47997c-.3704.06115-1.01667.03773-1.57723-.13662-.5997-.18652-.80312-.43939-.83535-.62423z" fill="#141b34"/></svg>