<svg fill="none" height="24" viewBox="0 0 24 24" width="24" xmlns="http://www.w3.org/2000/svg"><path d="m4 17.9808v-8.27327c0-3.63337 0-5.45005 1.17157-6.57879 1.17158-1.12874 3.05719-1.12874 6.82843-1.12874 3.7712 0 5.6569 0 6.8284 1.12874 1.1716 1.12874 1.1716 2.94542 1.1716 6.57879v8.27327c0 2.3059 0 3.4588-.7728 3.8715-1.4967.7991-4.304-1.8671-5.6372-2.6699-.7732-.4656-1.1598-.6984-1.59-.6984s-.8168.2328-1.59.6984c-1.3332.8028-4.14053 3.469-5.63715 2.6699-.77285-.4127-.77285-1.5656-.77285-3.8715z" stroke="#141b34" stroke-linecap="round" stroke-linejoin="round" stroke-width="1.5"/></svg>