<svg fill="none" height="24" viewBox="0 0 24 24" width="24" xmlns="http://www.w3.org/2000/svg"><path d="m3.77762 11.9424c-.94802-1.6531-1.40577-3.00292-1.68178-4.37119-.40822-2.02363.52597-4.0004 2.07354-5.26174.65407-.53309 1.40385-.35095 1.79062.34293l.87318 1.56651c.69211 1.24166 1.03816 1.86248.96952 2.52068-.06863.6582-.53533 1.19427-1.46873 2.26642zm0 0c1.91889 3.3459 4.93022 6.3589 8.27998 8.28m0 0c1.6531.948 3.0029 1.4058 4.3712 1.6818 2.0236.4082 4.0004-.526 5.2617-2.0736.5331-.654.351-1.4038-.3429-1.7906l-1.5665-.8732c-1.2417-.6921-1.8625-1.0381-2.5207-.9695s-1.1943.5353-2.2664 1.4687z" stroke="#141b34" stroke-linejoin="round" stroke-width="1.5"/></svg>