<svg fill="none" height="24" viewBox="0 0 24 24" width="24" xmlns="http://www.w3.org/2000/svg"><g stroke="#141b34" stroke-linecap="round" stroke-linejoin="round" stroke-width="1.5"><path d="m13 5.64868c-2.842-2.84202-6.79158-3.50028-8.82159-1.47027m0 0c-2.03001 2.03001-1.37175 5.97959 1.47027 8.82159m-1.47027-8.82159c.24505 1.22522 1.54408 3.89591 4.77866 4.77806"/><path d="m9.21114 19.7889c2.08636 2.0864 6.14566 1.4098 9.06666-1.5111 2.9209-2.921 3.5975-6.9803 1.5111-9.06666m-10.57776 10.57776c-2.08639-2.0864-1.40985-6.1457 1.51106-9.0667 2.921-2.92091 6.9803-3.59745 9.0667-1.51106m-10.57776 10.57776c1.51106-.5037 4.37176-.9172 5.66696-5.6664.9066-3.3244 3.6515-4.65951 4.9108-4.91136"/></g></svg>