<svg fill="none" height="24" viewBox="0 0 24 24" width="24" xmlns="http://www.w3.org/2000/svg"><g stroke="#141b34" stroke-linecap="round" stroke-linejoin="round" stroke-width="1.5"><path d="m15.1754 22v-.9883-.0209c.0051-.5451.452-.9857 1.0047-.9908l.075-.0001c1.4316-.0114 2.6615-1.0057 2.9536-2.3879l.0106-.0519.5192-2.5601.9413-.4641c.5038-.2484.7556-.3726.8101-.6003s-.1144-.4499-.4523-.8942l-1.9075-2.5081c-.1898-.2496-.2847-.3744-.3356-.5064-.0508-.13204-.0665-.31915-.0977-.69337-.3435-4.10645-3.8319-7.33353-8.0845-7.33353-4.48032 0-8.1123 3.58172-8.1123 8 0 2.7497 1.40669 5.1753 3.54911 6.6153m0 0v5.3847m0-5.3847c.61985.4166 1.30129.7507 2.02806.9863"/><path d="m14 9 .9199.79289c.3867.33331.5801.50001.5801.70711s-.1934.3738-.5801.7071l-.9199.7929"/><path d="m7 9-.91991.79289c-.38672.33331-.58009.50001-.58009.70711s.19336.3738.58009.7071l.91991.7929"/><path d="m11.5 8-2 5"/></g></svg>