<svg fill="none" height="24" viewBox="0 0 24 24" width="24" xmlns="http://www.w3.org/2000/svg"><g stroke="#141b34" stroke-linecap="round" stroke-width="1.5"><path d="m2 10c.77968-3.81591 3.66918-6.87068 7.40618-7.91023.31369-.08726.47053-.13089.55501-.03741.08451.09348.02225.24806-.10222.5572l-.85897 1.89044m5-2.5c3.8159.77968 6.8707 3.66918 7.9102 7.40618.0873.31369.1309.47053.0374.55501-.0934.08451-.248.02225-.5572-.10222l-1.8904-.85897m2.5 5c-.7797 3.8159-3.6692 6.8707-7.4062 7.9102-.3137.0873-.4705.1309-.555.0374-.0845-.0934-.0222-.248.1022-.5572l.859-1.8904m-5 2.5c-3.81591-.7797-6.87068-3.6692-7.91023-7.4062-.08726-.3137-.13089-.4705-.03741-.555s.24806-.0222.5572.1022l1.89044.859"/><path d="m11.9999 11.0989c-1.3125.9002-2.90123 2.6806-3.4999 5.4011m.87498-2.3965c-2.07188-4.794 2.10762-6.41083 5.28882-6.59059.3839-.02169.5759-.03254.7137.10733.1379.13987.1299.33926.114.73804-.132 3.31592-1.4539 7.87802-6.11652 5.74522z" stroke-linejoin="round"/></g></svg>