<svg fill="none" height="24" viewBox="0 0 24 24" width="24" xmlns="http://www.w3.org/2000/svg"><path clip-rule="evenodd" d="m6.18182 10.3333c-.97776 0-1.18182.1919-1.18182 1.1111v1.6667c0 .9193.20406 1.1111 1.18182 1.1111h2.36363v6.6667c0 .9192.20406 1.1111 1.18182 1.1111h2.36363c.9778 0 1.1818-.1919 1.1818-1.1111v-6.6667h2.654c.7416 0 .9327-.1355 1.1364-.8058l.5065-1.6667c.3489-1.1483.1339-1.4164-1.1364-1.4164h-3.1605v-2.77774c0-.61365.5291-1.11112 1.1818-1.11112h3.3637c.9777 0 1.1818-.19185 1.1818-1.11111v-2.22222c0-.91926-.2041-1.11111-1.1818-1.11111h-3.3637c-3.2635 0-5.90905 2.48731-5.90905 5.55556v2.77774z" fill-rule="evenodd" stroke="#141b34" stroke-linejoin="round" stroke-width="1.5"/></svg>