<svg fill="none" height="24" viewBox="0 0 24 24" width="24" xmlns="http://www.w3.org/2000/svg"><g stroke="#141b34"><path d="m2.5 12c0-4.47834 0-6.71751 1.39124-8.10876 1.39125-1.39124 3.63042-1.39124 8.10876-1.39124 4.4783 0 6.7175 0 8.1088 1.39124 1.3912 1.39125 1.3912 3.63042 1.3912 8.10876 0 4.4783 0 6.7175-1.3912 8.1088-1.3913 1.3912-3.6305 1.3912-8.1088 1.3912-4.47834 0-6.71751 0-8.10876-1.3912-1.39124-1.3913-1.39124-3.6305-1.39124-8.1088z" stroke-linejoin="round" stroke-width="1.5"/><path d="m16.5 12c0 2.4853-2.0147 4.5-4.5 4.5-2.48528 0-4.5-2.0147-4.5-4.5 0-2.48528 2.01472-4.5 4.5-4.5 2.4853 0 4.5 2.01472 4.5 4.5z" stroke-width="1.5"/><path d="m17.5078 6.5h-.009" stroke-linecap="round" stroke-linejoin="round" stroke-width="2"/></g></svg>