<svg fill="none" height="24" viewBox="0 0 24 24" width="24" xmlns="http://www.w3.org/2000/svg"><g stroke="#141b34" stroke-linecap="round" stroke-width="1.5"><path d="m20 11v-1c0-3.77124 0-5.65685-1.2405-6.82843-1.2405-1.17157-3.237-1.17157-7.2301-1.17157h-1.0588c-3.99308 0-5.98962 0-7.23011 1.17157-1.24049 1.17158-1.24049 3.05719-1.24049 6.82843v4c0 3.7712 0 5.6569 1.24049 6.8284 1.24049 1.1716 3.23702 1.1716 7.23011 1.1716h.5294"/><path d="m7 7h8"/><path d="m7 12h8"/></g><path d="m15.3477 21.8557-.1568-.7334zm-1.2034-1.2034.7334.1568zm.8764-2.5406-.5304-.5303zm2.8676 2.8676-.5303-.5303zm3.908-5.502.6495-.375zm-.6002 2.1942.5304.5303zm.6002-.6734.6495.375zm-1.2736-2.7944.375-.6495zm-2.1942.6002.5303.5303zm.6734-.6002-.375-.6495zm1.6639 2.9375-3.3078 3.3078 1.0606 1.0607 3.3079-3.3079zm-5.1148 1.5008 3.3078-3.3078-1.0606-1.0607-3.3079 3.3079zm-.3601 2.4803c-.1754.0375-.3156.0674-.4361.0898-.1215.0226-.2012.0333-.2552.0367-.0555.0036-.0517-.003-.0171.0059.0471.0122.1111.0425.1657.0971l-1.0606 1.0606c.3237.3238.7282.3512 1.0072.3334.2655-.0169.5891-.0881.9097-.1567zm-1.78-.6268c-.0686.3206-.1398.6442-.1567.9097-.0178.279.0096.6835.3334 1.0072l1.0606-1.0606c.0546.0546.0849.1186.0971.1657.0089.0346.0023.0384.0059-.0171.0034-.054.0141-.1337.0367-.2552.0224-.1205.0523-.2607.0898-.4361zm7.2549-5.1613c.3675.3675.4426.4518.4809.5181l1.2991-.75c-.1619-.2805-.4201-.5295-.7193-.8288zm1.0607 2.8676c.2992-.2992.5574-.5483.7193-.8287l-1.2991-.75c-.0383.0663-.1134.1506-.4809.5181zm-.5798-2.3495c.1377.2385.1377.5323 0 .7708l1.2991.75c.4056-.7026.4056-1.5682 0-2.2708zm.5798-1.5788c-.2993-.2992-.5483-.5574-.8288-.7193l-.75 1.2991c.0663.0383.1506.1134.5181.4809zm-2.8677 1.0607c.3675-.3675.4518-.4426.5181-.4809l-.75-1.2991c-.2804.1619-.5295.4201-.8287.7193zm2.0389-1.78c-.7026-.4056-1.5682-.4056-2.2708 0l.75 1.2991c.2385-.1377.5323-.1377.7708 0zm-3.5397 6.8948c-.1956.1955-.4628.322-.8425.4189-.1902.0486-.3931.0861-.6192.1252-.2173.0375-.466.078-.7054.1292l.3136 1.4668c.2018-.0431.4086-.0767.6472-.1179.2297-.0397.4829-.0856.7349-.1499.5048-.1289 1.0667-.3463 1.532-.8116zm-2.4803.3601c.0512-.2394.0917-.4881.1292-.7054.0391-.2261.0766-.429.1252-.6192.0969-.3797.2234-.6469.4189-.8425l-1.0607-1.0606c-.4653.4653-.6827 1.0272-.8116 1.532-.0643.252-.1102.5052-.1499.7349-.0412.2386-.0748.4454-.1179.6472z" fill="#141b34"/></svg>