<svg fill="none" height="24" viewBox="0 0 24 24" width="24" xmlns="http://www.w3.org/2000/svg"><g stroke="#141b34" stroke-linejoin="round" stroke-width="1.5"><path d="m5.05857 11.7421c1.91855.236 3.67256-1.1886 3.91771-3.18192.24514-1.99329-2.03743-3.91434-1.20826-6.56018-4.10325.59449-5.51746 3.90113-5.7394 5.70572-.24514 1.99329 1.11141 3.80048 3.02995 4.03638z"/><path d="m7 20c-1.92464-4.6758-2.23008-8.8059-1.86725-12" stroke-linecap="round"/><path d="m9.50786 17.6681c1.17494 2.3921 4.01274 3.0518 6.33844 1.4734s2.6915-5.9517 6.1537-7.4764c-3.6946-4.09263-8.3029-2.61512-10.4084-1.1862-2.32573 1.5784-3.25864 4.7971-2.08374 7.1892z"/><path d="m6 22c2.37778-4.0956 5.2644-6.57 8-8" stroke-linecap="round"/></g></svg>