<svg fill="none" height="24" viewBox="0 0 24 24" width="24" xmlns="http://www.w3.org/2000/svg"><g stroke="#141b34" stroke-linecap="round" stroke-width="1.5"><path d="m2 10c.77968-3.81591 3.66918-6.87068 7.40618-7.91023.31369-.08726.47053-.13089.55501-.03741.08451.09348.02225.24806-.10222.5572l-.85897 1.89044m5-2.5c3.8159.77968 6.8707 3.66918 7.9102 7.40618.0873.31369.1309.47053.0374.55501-.0934.08451-.248.02225-.5572-.10222l-1.8904-.85897m2.5 5c-.7797 3.8159-3.6692 6.8707-7.4062 7.9102-.3137.0873-.4705.1309-.555.0374-.0845-.0934-.0222-.248.1022-.5572l.859-1.8904m-5 2.5c-3.81591-.7797-6.87068-3.6692-7.91023-7.4062-.08726-.3137-.13089-.4705-.03741-.555s.24806-.0222.5572.1022l1.89044.859"/><path d="m8.61288 11.6647 3.49912-4.49144c.2737-.35127.7866-.13264.7866.33527v3.47647c0 .2803.2012.5075.4493.5075h1.7019c.3866 0 .5927.5149.3373.8428l-3.4991 4.4914c-.2737.3513-.7866.1327-.7866-.3352v-3.4765c0-.2803-.2012-.5075-.4493-.5075h-1.70192c-.38662 0-.59271-.5149-.3373-.8428z" stroke-linejoin="round"/></g></svg>