<svg fill="none" height="24" viewBox="0 0 24 24" width="24" xmlns="http://www.w3.org/2000/svg"><g stroke="#141b34" stroke-width="1.5"><path d="m2.5 6c0-1.54044 0-2.31066.34673-2.87647.19401-.3166.4602-.58279.7768-.7768.56581-.34673 1.33603-.34673 2.87647-.34673s2.31066 0 2.87647.34673c.3166.19401.58279.4602.77683.7768.3467.56581.3467 1.33603.3467 2.87647s0 2.31066-.3467 2.87647c-.19404.3166-.46023.58279-.77683.7768-.56581.34673-1.33603.34673-2.87647.34673s-2.31066 0-2.87647-.34673c-.3166-.19401-.58279-.4602-.7768-.7768-.34673-.56581-.34673-1.33603-.34673-2.87647z"/><path d="m3.78166 14.7817c1.04686-1.0469 1.57029-1.5703 2.19044-1.7192.347-.0833.7088-.0833 1.0558 0 .62015.1489 1.14358.6723 2.19044 1.7192 1.04686 1.0468 1.57026 1.5702 1.71916 2.1904.0833.347.0833.7088 0 1.0558-.1489.6202-.6723 1.1436-1.71916 2.1904-1.04686 1.0469-1.57029 1.5703-2.19043 1.7192-.34701.0833-.70881.0833-1.05581 0-.62015-.1489-1.14358-.6723-2.19044-1.7192-1.04686-1.0468-1.57029-1.5702-1.71918-2.1904-.08331-.347-.08331-.7088 0-1.0558.14889-.6202.67232-1.1436 1.71918-2.1904z"/><path d="m14 18c0-1.5404 0-2.3107.3467-2.8765.194-.3166.4602-.5828.7768-.7768.5658-.3467 1.3361-.3467 2.8765-.3467s2.3107 0 2.8765.3467c.3166.194.5828.4602.7768.7768.3467.5658.3467 1.3361.3467 2.8765s0 2.3107-.3467 2.8765c-.194.3166-.4602.5828-.7768.7768-.5658.3467-1.3361.3467-2.8765.3467s-2.3107 0-2.8765-.3467c-.3166-.194-.5828-.4602-.7768-.7768-.3467-.5658-.3467-1.3361-.3467-2.8765z"/><path d="m18 2v8m4-4h-8" stroke-linecap="round" stroke-linejoin="round"/></g></svg>