<svg fill="none" height="24" viewBox="0 0 24 24" width="24" xmlns="http://www.w3.org/2000/svg"><g stroke="#141b34" stroke-width="1.5"><g stroke-linecap="round" stroke-linejoin="round"><path d="m6.59961 11.923c5.07259-9.45431 11.38899-9.56333 13.91309-8.43605 1.1273 2.5241 1.0183 8.84045-8.436 13.91305-.0981-.5636-.6433-2.0401-2.0402-3.4369-1.39677-1.3968-2.87325-1.9421-3.43689-2.0401z"/><path d="m13.3496 16.95c1.8385.9 2.0348 2.5138 2.2895 4.05 0 0 3.8506-2.8465 1.3875-6.75"/><path d="m7.04996 10.7269c-.9-1.83846-2.51381-2.03475-4.04996-2.28944 0 0 2.8465-3.85064 6.74997-1.38753"/><path d="m6.01808 14.9113c-.51183.5118-1.38195 1.9962-.76775 3.8388 1.8426.6142 3.32692-.2559 3.83876-.7678"/></g><path d="m17.3008 8.45007c0-.9665-.7835-1.75-1.75-1.75s-1.75.7835-1.75 1.75.7835 1.75003 1.75 1.75003 1.75-.78353 1.75-1.75003z"/></g></svg>