<svg fill="none" height="24" viewBox="0 0 24 24" width="24" xmlns="http://www.w3.org/2000/svg"><g stroke="#141b34" stroke-linejoin="round" stroke-width="1.5"><g stroke-linecap="round"><path d="m22 12h-20"/><path d="m20 17h-4c-1.8856 0-2.8284 0-3.4142-.5858s-.5858-1.5286-.5858-3.4142v-1"/><path d="m4 12v10m16-10v10"/></g><path d="m15.0401 2.59903c-.7313-.6959-1.9169-.6959-2.6482 0-.4135.39344-.5721.84537-.1152 1.28011l1.416 1.34755c.4563.43418.9292.29045 1.3474-.10757.7313-.6959.7313-1.82418 0-2.52009zm0 0c.4957-.32579 1.0531-.78139 1.6722-.52273.2905.12136.4899.41844.8885 1.01259l1.4985 2.23341c.5646.84146.8469 1.2622.8938 1.73908.047.47687-.1483.93991-.5389 1.86597l-1.2958 3.07265"/><path d="m4 12v-4.5c0-1.12687.4506-1.5 1.5-1.5s1.5.37313 1.5 1.5v4.5" stroke-linecap="round"/><path d="m7 12v-4.5c0-1.12687.4506-1.5 1.5-1.5s1.5.37313 1.5 1.5v4.5" stroke-linecap="round"/></g></svg>