<svg fill="none" height="24" viewBox="0 0 24 24" width="24" xmlns="http://www.w3.org/2000/svg"><path d="m11.9854 15.4083 3.2414 3.6853c1.2009 1.3653 1.8014 2.048 2.4299 1.8818s.8441-1.0646 1.2751-2.8616l2.3911-9.9679c.6639-2.76758.9958-4.15136.2579-4.8339-.7378-.68253-2.0168-.17475-4.5747.84082l-11.86734 4.71167c-2.04583.81225-3.06875 1.21841-3.13369 1.91631-.00665.0714-.00676.1433-.00033.2147.0628.6982 1.08447 1.1078 3.12781 1.9268.92583.3711 1.38875.5567 1.72065.9121.03732.0399.0732.0813.10758.124.3058.38.43631.8787.6973 1.876l.48845 1.8666c.25397.9705.38096 1.4558.71355 1.522.33259.0661.62217-.3363 1.20132-1.1411zm0 0-.3178-.3312c-.3617-.377-.5425-.5654-.5425-.7996s.1808-.4227.5425-.7997l3.573-3.72371" stroke="#141b34" stroke-linecap="round" stroke-linejoin="round" stroke-width="1.5"/></svg>