<svg fill="none" height="24" viewBox="0 0 24 24" width="24" xmlns="http://www.w3.org/2000/svg"><path d="m2.5 12c0-4.47834 0-6.71751 1.39124-8.10876 1.39125-1.39124 3.63042-1.39124 8.10876-1.39124 4.4783 0 6.7175 0 8.1088 1.39124 1.3912 1.39125 1.3912 3.63042 1.3912 8.10876 0 4.4783 0 6.7175-1.3912 8.1088-1.3913 1.3912-3.6305 1.3912-8.1088 1.3912-4.47834 0-6.71751 0-8.10876-1.3912-1.39124-1.3913-1.39124-3.6305-1.39124-8.1088z" stroke="#141b34" stroke-linejoin="round" stroke-width="1.5"/><path d="m10.3938 11.7779c.41.0586.79-.2262.8486-.6363.0587-.41-.2262-.7899-.6362-.8486zm7.1062-1.5279c.4142 0 .75-.33579.75-.75s-.3358-.75-.75-.75zm-3.25-4.25c0-.41421-.3358-.75-.75-.75s-.75.33579-.75.75zm-1.5 8.5c0 1.5188-1.2312 2.75-2.75 2.75v1.5c2.3472 0 4.25-1.9028 4.25-4.25zm-2.75 2.75c-1.51878 0-2.75-1.2312-2.75-2.75h-1.5c0 2.3472 1.90279 4.25 4.25 4.25zm-2.75-2.75c0-1.5188 1.23122-2.75 2.75-2.75v-1.5c-2.34721 0-4.25 1.9028-4.25 4.25zm2.75-2.75c.1341 0 .2656.0095.3938.0279l.2124-1.4849c-.1984-.0284-.4008-.043-.6062-.043zm7.5-3c-.7746 0-1.6076-.3192-2.2441-.85077-.6359-.53104-1.0059-1.21088-1.0059-1.89923h-1.5c0 1.24465.6635 2.31481 1.5444 3.05052.8802.73518 2.0472 1.19948 3.2056 1.19948zm-4.75-2.75v8.5h1.5v-8.5z" fill="#141b34"/></svg>