<svg fill="none" height="24" viewBox="0 0 24 24" width="24" xmlns="http://www.w3.org/2000/svg"><g stroke="#141b34" stroke-linecap="round" stroke-linejoin="round" stroke-width="1.5"><path d="m4 14.0695c1.0145 0 2.43122-.301 3.31944.3498l1.76244 1.2915c.65479.4798 1.36392.3217 2.09462.207.9624-.1511 1.8235.6697 1.8235 1.7384 0 .292-2.0728 1.0343-2.3724 1.1754-.5885.2772-1.26463.209-1.79739-.1814l-1.9881-1.4568"/><path d="m13 17 4.091-1.8904c.7334-.2556 1.5421-.0561 2.0887.5154l.6708.7012c.2397.2506.1833.6714-.113.8435l-7.8546 4.5618c-.4732.2748-1.0315.3419-1.552.1864l-6.3309-1.891"/><path d="m12.002 12s2.1-2.23858 2.1-5-2.1-5-2.1-5-2.10005 2.23858-2.10005 5 2.10005 5 2.10005 5zm0 0s3.067-.0684 5-2.04082c1.9329-1.97244 2-5.10204 2-5.10204s-1.2695.0283-2.6897.57373m-4.3103 6.56913s-3.06705-.0684-5.00005-2.04082c-1.93299-1.97244-2-5.10204-2-5.10204s1.26946.0283 2.68968.57373"/></g></svg>