<svg fill="none" height="24" viewBox="0 0 24 24" width="24" xmlns="http://www.w3.org/2000/svg"><g stroke="#141b34" stroke-linejoin="round" stroke-width="1.5"><path d="m12 22c5.5228 0 10-4.4772 10-10 0-5.52285-4.4772-10-10-10-5.52285 0-10 4.47715-10 10 0 1.3789.27907 2.6926.78382 3.8877.27896.6604.41844.9907.43571 1.2403s-.05619.5241-.20311 1.0732l-1.01642 3.7988 3.79877-1.0164c.54911-.1469.82367-.2204 1.07325-.2031.24959.0172.57983.1567 1.24033.4357 1.1951.5047 2.50875.7838 3.88765.7838z"/><path d="m12.8824 12c1.1695 0 2.1176 1.0074 2.1176 2.25s-.9481 2.25-2.1176 2.25h-2.4706c-.66555 0-.9983 0-1.20505-.2028-.20675-.2027-.20675-.5291-.20675-1.1818v-3.1154m3.8824 0c1.1695 0 2.1176-1.0074 2.1176-2.25 0-1.24264-.9481-2.25-2.1176-2.25h-2.4706c-.66555 0-.9983 0-1.20505.20277s-.20675.52913-.20675 1.18185v3.11538m3.8824 0h-3.8824" stroke-linecap="round"/></g></svg>