<svg fill="none" height="24" viewBox="0 0 24 24" width="24" xmlns="http://www.w3.org/2000/svg"><g stroke="#141b34" stroke-width="1.5"><path d="m9.0923 16c-.30938.6819-1.0222.986-1.65343 1.3162l-3.64625 1.9071c-1.46417.7658-.73313 2.7767.83723 2.7767 3.49219 0 6.25375-1.6936 9.41055-3 .7946-.3289 1.1797-.2585 1.9596.0912" stroke-linecap="round" stroke-linejoin="round"/><path d="m9 19.0912c.77995-.3497 1.165-.4201 1.9596-.0912 3.1568 1.3064 5.9184 3 9.4106 3 1.5703 0 2.3013-2.0109.8372-2.7767l-3.6463-1.9071c-.6312-.3302-1.344-.6343-1.6534-1.3162" stroke-linecap="round" stroke-linejoin="round"/><path d="m10 4c0 1.10457.8954 2 2 2s2-.89543 2-2-.8954-2-2-2-2 .89543-2 2z"/><g stroke-linejoin="round"><path d="m12 8c-3.31371 0-6 2.6863-6 6 3.31371 0 6-2.6863 6-6z"/><path d="m12 8c3.3137 0 6 2.6863 6 6-3.3137 0-6-2.6863-6-6z"/></g></g></svg>